<svg width="250" height="24" viewBox="0 0 250 24" fill="none" xmlns="http://www.w3.org/2000/svg">
<path d="M2 10.5C1.17157 10.5 0.5 11.1716 0.5 12C0.5 12.8284 1.17157 13.5 2 13.5V10.5ZM249.061 13.0607C249.646 12.4749 249.646 11.5251 249.061 10.9393L239.515 1.3934C238.929 0.807611 237.979 0.807611 237.393 1.3934C236.808 1.97919 236.808 2.92893 237.393 3.51472L245.879 12L237.393 20.4853C236.808 21.0711 236.808 22.0208 237.393 22.6066C237.979 23.1924 238.929 23.1924 239.515 22.6066L249.061 13.0607ZM2 13.5H248V10.5H2V13.5Z" fill="black"/>
</svg>
