<svg width="53" height="53" viewBox="0 0 53 53" fill="none" xmlns="http://www.w3.org/2000/svg">
<path d="M52.3808 26.5C52.3808 11.8645 40.6549 0 26.1904 0C11.7258 0 0 11.8645 0 26.5C0 41.1355 11.7258 53 26.1904 53C40.6549 53 52.3808 41.1355 52.3808 26.5Z" fill="white"/>
<path d="M28.7556 29.6468V45.8198H21.4053V29.6468H15.3063V23.0913H21.4053V20.6965C21.4053 11.8349 25.0572 7.17969 32.7985 7.17969C35.1695 7.17969 35.7641 7.56262 37.0675 7.87839V14.3668C35.6073 14.1039 35.1992 13.971 33.6868 13.971C31.8877 13.971 30.9373 14.4796 30.0632 15.4941C29.1891 16.51 28.7542 18.2704 28.7542 20.7751V23.0913H37.0745L34.8391 29.6468H28.7542H28.7556Z" fill="black"/>
</svg>
