<svg width="53" height="53" viewBox="0 0 53 53" fill="none" xmlns="http://www.w3.org/2000/svg">
<path d="M52.7615 26.5C52.7615 11.8645 41.0357 0 26.5711 0C12.1066 0 0.380737 11.8645 0.380737 26.5C0.380737 41.1355 12.1066 53 26.5711 53C41.0357 53 52.7615 41.1355 52.7615 26.5Z" fill="white"/>
<path d="M38.0173 43.8954H15.1264C11.9575 43.8954 9.38037 41.2877 9.38037 38.0814V14.9199C9.38037 11.7136 11.9575 9.10596 15.1264 9.10596H38.0173C41.1862 9.10596 43.7633 11.7136 43.7633 14.9199V38.0814C43.7633 41.2877 41.1862 43.8954 38.0173 43.8954ZM15.1264 11.0092C12.9955 11.0092 11.2614 12.7638 11.2614 14.9199V38.0814C11.2614 40.2375 12.9955 41.9922 15.1264 41.9922H38.0173C40.1482 41.9922 41.8824 40.2375 41.8824 38.0814V14.9199C41.8824 12.7638 40.1482 11.0092 38.0173 11.0092H15.1264Z" fill="black"/>
<path d="M26.5718 35.4266C24.2149 35.4266 22.0007 34.4979 20.3344 32.8119C18.668 31.1258 17.7501 28.884 17.7501 26.5007C17.7501 24.1174 18.668 21.8755 20.3344 20.1895C22.0007 18.5035 24.2163 17.5747 26.5718 17.5747C28.9273 17.5747 31.1429 18.5035 32.8093 20.1895C34.4756 21.8755 35.3935 24.1174 35.3935 26.5007C35.3935 28.884 34.4756 31.1258 32.8093 32.8119C31.1429 34.4979 28.9273 35.4266 26.5718 35.4266ZM26.5718 19.4779C22.7449 19.4779 19.6311 22.6285 19.6311 26.5007C19.6311 30.3728 22.7449 33.5234 26.5718 33.5234C30.3987 33.5234 33.5125 30.3728 33.5125 26.5007C33.5125 22.6285 30.3987 19.4779 26.5718 19.4779Z" fill="black"/>
<path d="M39.212 13.9397C39.212 14.8856 38.4537 15.6529 37.5188 15.6529C36.584 15.6529 35.8257 14.8856 35.8257 13.9397C35.8257 12.9938 36.584 12.2266 37.5188 12.2266C38.4537 12.2266 39.212 12.9938 39.212 13.9397Z" fill="black"/>
</svg>
