<svg width="213" height="213" viewBox="0 0 213 213" fill="none" xmlns="http://www.w3.org/2000/svg">
<g clip-path="url(#clip0_72_61)">
<path fill-rule="evenodd" clip-rule="evenodd" d="M212.997 106.5C212.997 47.6815 165.315 0 106.5 0C47.6846 0 0 47.6815 0 106.5C0 165.318 47.6815 213 106.5 213C165.318 213 213 165.318 213 106.5" fill="#4473CA"/>
<path fill-rule="evenodd" clip-rule="evenodd" d="M212.997 106.5C212.997 51.7173 168.586 7.30273 113.803 7.30273C59.02 7.30273 14.6055 51.7173 14.6055 106.5C14.6055 161.283 59.0169 205.694 113.803 205.694C168.589 205.694 212.997 161.283 212.997 106.5Z" fill="#3B66B6"/>
<path fill-rule="evenodd" clip-rule="evenodd" d="M201.916 106.5C201.916 54.0265 159.377 11.4841 106.9 11.4841C54.4232 11.4841 11.8871 54.0265 11.8871 106.5C11.8871 158.974 54.4263 201.516 106.9 201.516C159.373 201.516 201.916 158.977 201.916 106.5Z" fill="white"/>
<path fill-rule="evenodd" clip-rule="evenodd" d="M199.197 106.5C199.197 55.5267 157.873 14.2056 106.9 14.2056C55.9266 14.2056 14.6055 55.5267 14.6055 106.5C14.6055 157.473 55.9297 198.794 106.9 198.794C157.87 198.794 199.197 157.473 199.197 106.5Z" fill="#4473CA"/>
<path d="M83.6651 102.588L107.142 73.5851H81.6969V60.0242H136.938L111.053 92.4587C119.677 93.8194 126.455 97.2073 131.393 102.65C136.312 108.068 138.78 114.85 138.78 122.928C138.78 131.464 135.621 138.621 129.301 144.356C122.981 150.109 115.387 152.976 106.534 152.976C97.6816 152.976 90.4843 150.152 84.3098 144.48C78.1168 138.829 75.0203 131.905 75.0203 123.722H90.5897C90.5897 127.906 92.1581 131.548 95.298 134.707C98.4565 137.847 102.204 139.415 106.534 139.415C110.864 139.415 114.798 137.781 117.959 134.518C121.118 131.254 122.708 127.382 122.708 122.925C122.708 118.468 121.118 114.993 117.959 111.896C114.801 108.778 110.97 107.232 106.534 107.232C102.099 107.232 98.1001 108.822 95.1306 112.024L83.662 102.585L83.6651 102.588Z" fill="white"/>
<path fill-rule="evenodd" clip-rule="evenodd" d="M95.1306 112.024L122.073 127.577C122.497 126.105 122.708 124.552 122.708 122.925C122.708 118.675 121.118 114.993 117.959 111.896C114.801 108.778 110.97 107.232 106.534 107.232C102.099 107.232 98.1001 108.822 95.1306 112.024ZM99.0393 83.5969L107.145 73.5851H81.7L99.0393 83.5969ZM96.5906 151.569L154.997 185.289C181.508 169.072 199.197 139.852 199.197 106.5C199.197 102.811 198.98 99.1756 198.562 95.6017L136.941 60.0242L111.057 92.4587C119.68 93.8194 126.459 97.2073 131.396 102.65C136.315 108.068 138.783 114.85 138.783 122.928C138.783 131.464 135.624 138.621 129.304 144.356C122.984 150.109 115.39 152.976 106.537 152.976C103.016 152.976 99.7026 152.508 96.5906 151.569Z" fill="#3B66B6"/>
</g>
<defs>
<clipPath id="clip0_72_61">
<rect width="212.997" height="213" fill="white"/>
</clipPath>
</defs>
</svg>
