<svg width="213" height="213" viewBox="0 0 213 213" fill="none" xmlns="http://www.w3.org/2000/svg">
<g clip-path="url(#clip0_72_51)">
<path fill-rule="evenodd" clip-rule="evenodd" d="M213 106.5C213 47.6815 165.315 0 106.5 0C47.6846 0 0 47.6815 0 106.5C0 165.318 47.6815 213 106.5 213C165.318 213 213 165.318 213 106.5Z" fill="#4473CA"/>
<path fill-rule="evenodd" clip-rule="evenodd" d="M213 106.5C213 51.7173 168.589 7.30273 113.803 7.30273C59.0168 7.30273 14.6085 51.7173 14.6085 106.5C14.6085 161.283 59.0199 205.694 113.803 205.694C168.585 205.694 213 161.283 213 106.5Z" fill="#3B66B6"/>
<path fill-rule="evenodd" clip-rule="evenodd" d="M201.919 106.5C201.919 54.0265 159.38 11.4841 106.903 11.4841C54.4263 11.4841 11.8871 54.0265 11.8871 106.5C11.8871 158.974 54.4263 201.516 106.903 201.516C159.38 201.516 201.919 158.977 201.919 106.5Z" fill="white"/>
<path fill-rule="evenodd" clip-rule="evenodd" d="M199.197 106.5C199.197 55.5267 157.876 14.2056 106.903 14.2056C55.9296 14.2056 14.6085 55.5267 14.6085 106.5C14.6085 157.473 55.9296 198.794 106.903 198.794C157.876 198.794 199.197 157.473 199.197 106.5Z" fill="#4473CA"/>
<path d="M131.027 109.755L106.754 139.427H136.907V152.966H76.7684L119.184 100.487C121.527 97.5576 122.699 93.9992 122.742 89.8147C122.742 85.3575 121.195 81.548 118.096 78.3895C114.977 75.231 111.171 73.6409 106.649 73.6409C102.126 73.6409 98.3201 75.2744 95.2235 78.5166C92.1053 81.7588 90.5555 85.7356 90.5555 90.444H74.9861C74.9861 82.0533 78.0826 74.8962 84.2757 68.9543C90.4687 63.0123 97.9171 60.0397 106.624 60.0397C115.331 60.0397 122.965 62.9255 129.307 68.7032C135.649 74.4995 138.807 81.5294 138.807 89.8178C138.807 96.7238 136.213 103.376 131.024 109.758" fill="white"/>
<path fill-rule="evenodd" clip-rule="evenodd" d="M131.027 109.755L106.754 139.427H136.907V152.966H76.7684L143.265 191.358C175.56 177.5 198.357 145.744 199.176 108.571L127.655 67.2773C128.216 67.7299 128.768 68.2041 129.31 68.7001C135.652 74.4964 138.81 81.5263 138.81 89.8147C138.81 96.7207 136.216 103.372 131.027 109.755ZM110.66 111.032L119.184 100.484C121.527 97.5545 122.699 93.9961 122.742 89.8116C122.742 85.3544 121.195 81.5449 118.096 78.3864C114.977 75.2279 111.171 73.6378 106.649 73.6378C102.126 73.6378 98.3201 75.2713 95.2235 78.5135C92.1053 81.7557 90.5555 85.7325 90.5555 90.4408H74.9861L110.653 111.035L110.66 111.032Z" fill="#3B66B6"/>
</g>
<defs>
<clipPath id="clip0_72_51">
<rect width="213" height="213" fill="white"/>
</clipPath>
</defs>
</svg>
