<svg width="213" height="213" viewBox="0 0 213 213" fill="none" xmlns="http://www.w3.org/2000/svg">
<g clip-path="url(#clip0_72_122)">
<path fill-rule="evenodd" clip-rule="evenodd" d="M213 106.5C213 47.6815 165.318 0 106.502 0C47.6853 0 0 47.6815 0 106.5C0 165.318 47.6822 213 106.502 213C165.321 213 213.003 165.318 213.003 106.5" fill="#4473CA"/>
<path fill-rule="evenodd" clip-rule="evenodd" d="M213 106.5C213 51.7173 168.588 7.30273 113.804 7.30273C59.0209 7.30273 14.6057 51.7173 14.6057 106.5C14.6057 161.283 59.0178 205.694 113.804 205.694C168.591 205.694 213 161.283 213 106.5Z" fill="#3B66B6"/>
<path fill-rule="evenodd" clip-rule="evenodd" d="M201.922 106.5C201.922 54.0265 159.382 11.4841 106.904 11.4841C54.4271 11.4841 11.8872 54.0265 11.8872 106.5C11.8872 158.974 54.4302 201.516 106.904 201.516C159.379 201.516 201.922 158.977 201.922 106.5Z" fill="white"/>
<path fill-rule="evenodd" clip-rule="evenodd" d="M199.2 106.5C199.2 55.5267 157.876 14.2056 106.905 14.2056C55.9336 14.2056 14.6057 55.5267 14.6057 106.5C14.6057 157.473 55.9305 198.794 106.901 198.794C157.872 198.794 199.197 157.473 199.197 106.5" fill="#4473CA"/>
<path d="M90.3523 92.6354V77.6766L123.457 59.116V153.884H107.887V83.073L90.3523 92.6354Z" fill="white"/>
<path fill-rule="evenodd" clip-rule="evenodd" d="M123.457 59.116V153.884H107.887L158.446 183.073C183.032 166.493 199.2 138.383 199.2 106.5C199.2 105.26 199.175 104.03 199.129 102.802L123.457 59.1129V59.116ZM90.3523 92.6353L107.887 102.759V83.073L90.3523 92.6353Z" fill="#3B66B6"/>
</g>
<defs>
<clipPath id="clip0_72_122">
<rect width="213" height="213" fill="white"/>
</clipPath>
</defs>
</svg>
