<svg width="107" height="121" viewBox="0 0 107 121" fill="none" xmlns="http://www.w3.org/2000/svg">
<g clip-path="url(#clip0_72_169)">
<path d="M3.8 27.32L49.36 1.02C51.71 -0.34 54.6 -0.34 56.95 1.02L102.51 27.33C104.86 28.69 106.31 31.19 106.31 33.91V86.52C106.31 89.23 104.86 91.74 102.51 93.1L56.95 119.41C54.6 120.77 51.71 120.77 49.36 119.41L3.8 93.09C1.45 91.73 0 89.23 0 86.51V33.9C0 31.19 1.45 28.68 3.8 27.32Z" fill="#FF814B"/>
<path d="M88.7799 61.75L71.5199 46.27L67.9399 49.48L75.3999 56.17C77.9799 58.49 78.1999 62.48 75.8799 65.06C75.2199 65.8 74.3999 66.36 73.4899 66.72V78.43C73.4899 79.42 73.1899 80.35 72.6899 81.13H84.2999C85.5399 81.13 86.5499 80.12 86.5499 78.88V67.57C87.4599 67.57 88.3699 67.2 89.0299 66.46C90.2599 65.09 90.1499 62.98 88.7799 61.75Z" fill="white"/>
<path d="M32.82 75.43V66.7C31.91 66.35 31.09 65.79 30.43 65.05C28.11 62.46 28.33 58.48 30.91 56.16L38.37 49.47L34.79 46.26L17.53 61.74C16.16 62.97 16.05 65.08 17.28 66.45C17.94 67.18 18.85 67.56 19.76 67.56V78.87C19.76 80.11 20.77 81.12 22.01 81.12H33.62C33.12 80.34 32.82 79.42 32.82 78.42V75.43Z" fill="white"/>
<path d="M73.8699 57.87L66.2299 51.01L53.1599 39.29L40.0899 51.01L32.4499 57.87C30.8099 59.34 30.6699 61.87 32.1399 63.52C32.9299 64.4 34.0199 64.83 35.1099 64.83V72.59V75.43V78.42C35.1099 79.91 36.3199 81.12 37.8099 81.12H68.4899C69.9799 81.12 71.1899 79.91 71.1899 78.42V64.85C72.2899 64.85 73.3799 64.4 74.1699 63.52C75.6499 61.87 75.5099 59.35 73.8699 57.87Z" fill="white"/>
</g>
<defs>
<clipPath id="clip0_72_169">
<rect width="106.31" height="120.41" fill="white"/>
</clipPath>
</defs>
</svg>
