<svg width="107" height="121" viewBox="0 0 107 121" fill="none" xmlns="http://www.w3.org/2000/svg">
<g clip-path="url(#clip0_72_161)">
<path d="M3.8 27.32L49.36 1.02C51.71 -0.34 54.6 -0.34 56.95 1.02L102.51 27.33C104.86 28.69 106.31 31.19 106.31 33.91V86.52C106.31 89.23 104.86 91.74 102.51 93.1L56.95 119.41C54.6 120.77 51.71 120.77 49.36 119.41L3.8 93.09C1.45 91.73 0 89.23 0 86.51V33.9C0 31.19 1.45 28.68 3.8 27.32Z" fill="#FF814B"/>
<path d="M43.1301 86.25C42.8801 86.28 42.6401 86.29 42.4101 86.28L29.8301 85.91C27.6501 85.85 25.9401 84.03 26.0001 81.85L26.3701 69.27C26.4201 67.74 27.2601 65.88 28.3901 64.84L60.5101 35.19C61.1301 34.61 61.9201 34.26 62.7701 34.17C64.0001 34.04 65.2401 34.49 66.0901 35.39L79.2701 49.36C80.0001 50.13 80.3701 51.14 80.3401 52.19C80.3001 53.25 79.8501 54.23 79.0801 54.94L46.9601 84.59C46.0301 85.45 44.5301 86.1 43.1501 86.26L43.1301 86.25ZM30.5201 81.41L42.5401 81.76C42.5401 81.76 42.6001 81.76 42.6401 81.76C43.1201 81.71 43.7001 81.43 43.8801 81.27L75.5601 52.02L63.1601 38.87L31.4401 68.15C31.2001 68.37 30.8801 69.07 30.8701 69.4L30.5201 81.42V81.41Z" fill="white"/>
<path d="M40.04 74.6299C39.35 74.7099 38.63 74.46 38.13 73.91C37.29 72.99 37.35 71.56 38.27 70.72L64.07 47.11C64.99 46.27 66.42 46.33 67.26 47.25C68.1 48.17 68.04 49.6 67.12 50.44L41.32 74.05C40.95 74.39 40.5 74.58 40.04 74.6299Z" fill="white"/>
</g>
<defs>
<clipPath id="clip0_72_161">
<rect width="106.31" height="120.41" fill="white"/>
</clipPath>
</defs>
</svg>
