<svg width="107" height="121" viewBox="0 0 107 121" fill="none" xmlns="http://www.w3.org/2000/svg">
<g clip-path="url(#clip0_72_154)">
<path d="M3.8 27.32L49.36 1.02C51.71 -0.34 54.6 -0.34 56.95 1.02L102.51 27.33C104.86 28.69 106.31 31.19 106.31 33.91V86.52C106.31 89.23 104.86 91.74 102.51 93.1L56.95 119.41C54.6 120.77 51.71 120.77 49.36 119.41L3.8 93.09C1.45 91.73 0 89.23 0 86.51V33.9C0 31.19 1.45 28.68 3.8 27.32Z" fill="#FF814B"/>
<path d="M47.44 70.5698L42.74 72.7898L38.25 83.7298L49.03 92.7398L52.38 77.7498L50.55 75.0898L47.44 70.5698Z" fill="white"/>
<path d="M59.2999 70.5698L63.9999 72.7898L68.4899 83.7298L57.6999 92.7398L54.3599 77.7498L56.1899 75.0898L59.2999 70.5698Z" fill="white"/>
<path d="M75.9199 50.4699L69.5699 46.0599L72.8899 39.0799L65.1899 38.4399L64.5699 30.7299L57.5799 34.0299L53.1899 27.6599L48.7899 34.0099L41.8099 30.6899L41.1699 38.3899L33.4599 39.0099L36.7599 45.9999L30.3899 50.3799L36.7399 54.7899L33.4199 61.7699L41.1199 62.4099L41.7299 70.1199L44.6099 68.7599L48.7299 66.8199L53.1099 73.1899L53.9599 71.9599L57.5099 66.8399L64.4899 70.1599L65.1299 62.4499L72.8399 61.8399L69.5399 54.8499L75.9099 50.4699H75.9199ZM54.4499 61.8799C48.1299 62.5899 42.4199 58.0399 41.7099 51.7199C40.9999 45.3999 45.5399 39.6899 51.8699 38.9799C58.1899 38.2699 63.8999 42.8199 64.6099 49.1399C65.3199 55.4599 60.7799 61.1699 54.4499 61.8799Z" fill="white"/>
</g>
<defs>
<clipPath id="clip0_72_154">
<rect width="106.31" height="120.41" fill="white"/>
</clipPath>
</defs>
</svg>
